<svg xmlns="http://www.w3.org/2000/svg" width="48" height="32" viewBox="0 0 48 32"><defs><style>.a{fill:#fff;}.b{fill:#296db6;}</style></defs><g transform="translate(0 0)"><rect class="a" width="48" height="32" rx="4"/><path class="b" d="M8.88,17.9v8.16h8.26L18,24.84l.84,1.22h5.05V24.22h.56a4.93,4.93,0,0,0,1.5-.22v2.06h3.43V24.6l1.16,1.46H46.16a3.35,3.35,0,0,0,1.82-.5V29a4,4,0,0,1-3.89,3H4a4,4,0,0,1-4-4V15.4H2.28l.47-1.22H3.87l.46,1.22H22.67V13.94l1.16,1.46h4.81v-.74a4,4,0,0,0,2.42.74h2.87l.46-1.22h1.12L36,15.4h4.9V13.82l1,1.58h3.38V7.24H41.69V8.9L40.62,7.24H37.48v2.1l-1-2.1H31.14a3.88,3.88,0,0,0-2.5.82V7.24H11L10.4,9,9.8,7.2h-4V9.3L4.86,7.2H1.6L0,11V4A4,4,0,0,1,4,0H44.09A4,4,0,0,1,48,3V17.9H18.86L18,19.1l-.84-1.2Z" transform="translate(0 0)"/><path class="b" d="M30.963,5.692c-.048,0-.1,0-.143-.006H27.9v-1.2h2.92a.51.51,0,1,0,0-1H29.5a1.57,1.57,0,0,1-1.76-1.66A1.741,1.741,0,0,1,29.68.067H32.61l-.54,1.2H29.64a.51.51,0,1,0,0,1h1.31v-.04a1.55,1.55,0,0,1,1.76,1.62,1.75,1.75,0,0,1-1.747,1.845Zm5.193-.017c-.059,0-.118,0-.176-.009H33.11v-1.2H36a.51.51,0,1,0,0-1H34.71a1.571,1.571,0,0,1-1.76-1.66A1.738,1.738,0,0,1,34.89.047h2.93l-.54,1.22H34.85l-.03-.04a.51.51,0,1,0,0,1h1.36a1.619,1.619,0,0,1,1.64.94v1.34A1.774,1.774,0,0,1,36.156,5.675ZM10.9,5.666H9.18L7.82,3.847l-1.36,1.8H4.82l2.2-2.8L4.73.006h1.7L7.82,1.787,9.22.047h1.66l-2.26,2.8L10.9,5.665Zm7.4-.019H16.94V.067H20a1.822,1.822,0,0,1,.213-.013,1.792,1.792,0,0,1,.208,3.572l1.888,2.019-1.708,0-1.68-2H18.3v2Zm0-4.442v1.3h1.58v-.06a.61.61,0,0,0,.7-.62.622.622,0,0,0-.7-.62Zm8.88,4.441H22.63V.067h4.55v1.2l-3.17-.04v1H27.1v1.22H24.01v1h3.17v1.2Zm-14.67,0H11.14V.047H14.25V.006C14.306,0,14.355,0,14.4,0A1.81,1.81,0,0,1,16.21,1.886a1.86,1.86,0,0,1-1.859,1.905c-.047,0-.094,0-.14-.005h-1.7V5.646Zm0-4.441v1.42h1.62v-.04a.69.69,0,1,0,0-1.381ZM4.53,5.647H0V.006H4.53v1.2l-3.17.021v1H4.47v1.22H1.36v1H4.53v1.2Z" transform="translate(10.18 19.154)"/><path class="b" d="M39.9,5.7H38.56V.055h1.67l2,3,.38.641V.015H44V5.655H42.35L40.26,2.475l-.36-.62V5.694Zm-1.6,0H36.76l-.48-1.18H33.61l-.48,1.139H31.67L34.09.015h1.8L38.3,5.694Zm-3.37-4.52h0l-.36.879-.52,1.32h1.76l-.54-1.32-.34-.879ZM6.65,5.7H5.11L4.63,4.515H2L1.48,5.655H0L2.45.015H4.23L6.65,5.694ZM3.29,1.175h0l-.36.879L2.38,3.375H4.19l-.54-1.32-.36-.879ZM30.783,5.658h0A2.5,2.5,0,0,1,28.3,2.875V2.8A2.55,2.55,0,0,1,30.837.01c.054,0,.109,0,.163.005h1.58V1.235H31.1l-.068,0A1.4,1.4,0,0,0,29.64,2.8v.079a1.4,1.4,0,0,0,1.388,1.582l.073,0h.45L31,5.655H30.92C30.875,5.657,30.829,5.658,30.783,5.658Zm-8.994,0H20.4V.015h3.05a1.77,1.77,0,0,1,2,1.779,1.744,1.744,0,0,1-1.54,1.78l1.879,2.078-1.7,0-1.68-2h-.62v2Zm0-4.441v1.24h1.58a.618.618,0,0,0,.089.007.61.61,0,0,0,.61-.627.629.629,0,0,0-.7-.62ZM8.24,5.656H6.91V.015H9.12l1.121,3.26.18.62.18-.62L11.7.015h2.19V5.654H12.57V1.1l-.26.86L11,5.655H9.8l-1.28-3.7L8.24,1.1V5.655Zm19.239,0H26.11V.015h1.37V5.654Zm-7.979,0H15V.015h4.5v1.2l-3.171.02v1H19.42v1.22H16.33v1H19.5v1.2Z" transform="translate(0 8.485)"/></g></svg>