<svg xmlns="http://www.w3.org/2000/svg" width="24" height="24" viewBox="0 0 24 24"><defs><style>.a{fill:none;}.b{fill:#1a1a1a;stroke:#1a1a1a;stroke-width:0.5px;}</style></defs><g transform="translate(-1697 -70)"><rect class="a" width="24" height="24" transform="translate(1697 70)"/><path class="b" d="M71.967,138.336h9.767a1.218,1.218,0,0,0,1.1-.68l3.222-7.378A.878.878,0,0,0,86,129.46a.793.793,0,0,0-.663-.368H69.9l-.3-1.326a1.692,1.692,0,0,0-1.614-1.268H64.1a.475.475,0,0,0,0,.95h3.888a.763.763,0,0,1,.69.546l3.013,13.469a2.233,2.233,0,1,0,2.812,2.147,2.548,2.548,0,0,0-.374-1.244h6.226a2.551,2.551,0,0,0-.374,1.245,2.231,2.231,0,1,0,2.231-2.234c-.161,0-.318.039-.469.039h-9a.562.562,0,0,1-.09-.018Zm13.142-8.293-3.147,7.215a.31.31,0,0,1-.228.129H71.755l-1.642-7.343h15Zm-11.551,13.57a1.285,1.285,0,1,1-1.374-1.282.463.463,0,0,0,.2.037h.242A1.373,1.373,0,0,1,73.557,143.612Zm9.941.011a1.285,1.285,0,1,1-2.569-.011,1.373,1.373,0,0,1,.93-1.245h.229a.463.463,0,0,0,.2-.036A1.294,1.294,0,0,1,83.5,143.623Z" transform="translate(1634.123 -54.176)"/></g></svg>