<svg xmlns="http://www.w3.org/2000/svg" width="48" height="32" viewBox="0 0 48 32"><defs><style>.a{fill:#fff;}.b{fill:#231f20;}.c{fill:#ee7623;}</style></defs><rect class="a" width="48" height="32" rx="4"/><path class="b" d="M44,32H4a4,4,0,0,1-4-4V4A4,4,0,0,1,4,0H44a4,4,0,0,1,4,4V28A4,4,0,0,1,44,32ZM4,2A2,2,0,0,0,2,4V28a2,2,0,0,0,2,2H44a2,2,0,0,0,2-2V4a2,2,0,0,0-2-2Z"/><g transform="translate(4 10)"><path class="c" d="M34.08,0V10.28a2,2,0,0,1-2,2H0C22.08,8.5,34.08,0,34.08,0Z" transform="translate(7.92 7.72)"/><path class="b" d="M1.987,6.425c-.052,0-.1,0-.157,0H0V.012H1.83C1.92,0,2.011,0,2.1,0A3.17,3.17,0,0,1,5.27,3.222a3.216,3.216,0,0,1-1.15,2.46A3.447,3.447,0,0,1,1.987,6.425ZM1.25,1.082V5.371h.33c.067.006.134.009.2.009A2.32,2.32,0,0,0,3.29,4.821,2.18,2.18,0,0,0,4,3.2,2.146,2.146,0,0,0,3.29,1.6,2.355,2.355,0,0,0,1.8,1.071c-.074,0-.149,0-.223.011Z" transform="translate(0 0.628)"/><rect class="b" width="1.25" height="6.42" transform="translate(5.85 0.63)"/><path class="b" d="M2.65,2.574c-.75-.27-1-.46-1-.8a.871.871,0,0,1,.93-.72,1.33,1.33,0,0,1,1,.52l.65-.85A2.75,2.75,0,0,0,2.35,0a1.88,1.88,0,0,0-2,1.84c0,.89.4,1.34,1.57,1.76a5.14,5.14,0,0,1,.87.37.76.76,0,0,1,.38.66.92.92,0,0,1-1,.91,1.48,1.48,0,0,1-1.36-.86L0,5.464a2.49,2.49,0,0,0,2.28,1.22,2.06,2.06,0,0,0,2.2-2.1C4.48,3.564,4.07,3.094,2.65,2.574Z" transform="translate(7.52 0.516)"/><path class="b" d="M0,3.36A3.32,3.32,0,0,0,3.39,6.71a3.43,3.43,0,0,0,1.57-.37V4.87a2,2,0,0,1-1.51.7A2.11,2.11,0,0,1,1.29,3.35a2.13,2.13,0,0,1,2.1-2.2,2.09,2.09,0,0,1,1.57.72V.4A3.19,3.19,0,0,0,3.42,0,3.38,3.38,0,0,0,0,3.36Z" transform="translate(12.41 0.48)"/><path class="b" d="M3.08,4.31,1.36,0H0L2.72,6.58h.67L6.17,0H4.81L3.08,4.31Z" transform="translate(24.22 0.63)"/><path class="b" d="M0,6.42H3.56V5.33H1.25V3.6H3.47V2.51H1.25V1.09H3.56V0H0V6.42Z" transform="translate(30.95 0.63)"/><path class="b" d="M1.25,6.411H0V0H1.85C3.293,0,4.12.685,4.12,1.88A1.726,1.726,0,0,1,2.66,3.71l2,2.7-1.519,0L1.4,3.83H1.25V6.41ZM1.29,1V2.94h.37c.812,0,1.191-.3,1.191-.941,0-.663-.4-1-1.191-1Z" transform="translate(35.34 0.64)"/><path class="c" d="M6.82,3.41A3.41,3.41,0,1,1,3.41,0,3.41,3.41,0,0,1,6.82,3.41Z" transform="translate(17.77 0.43)"/><path class="b" d="M.13.581H0V0H.19C.327,0,.4.059.4.17A.149.149,0,0,1,.29.33L.459.578.31.58.13.34V.58Z" transform="translate(39.71 0.58)"/><path class="b" d="M.5,1A.5.5,0,0,1,0,.5.49.49,0,0,1,.48,0H.509A.49.49,0,0,1,1,.5.5.5,0,0,1,.5,1ZM.48.091A.407.407,0,0,0,.2.215.4.4,0,0,0,.09.5.388.388,0,0,0,.2.783.392.392,0,0,0,.48.9.333.333,0,0,0,.73.791.38.38,0,0,0,.86.5.391.391,0,0,0,.48.091Z" transform="translate(39.46 0.369)"/></g></svg>