<svg xmlns="http://www.w3.org/2000/svg" xmlns:xlink="http://www.w3.org/1999/xlink" width="36" height="36" viewBox="0 0 36 36"><defs><style>.a{fill:#fff;stroke:#707070;}.b{clip-path:url(#a);}.c{fill:#2c2c2c;}</style><clipPath id="a"><rect class="a" width="36" height="36" transform="translate(1059 496)"/></clipPath></defs><g class="b" transform="translate(-1059 -496)"><path class="c" d="M140.985,112H113.208A1.206,1.206,0,0,0,112,113.208v27.777a1.206,1.206,0,0,0,1.208,1.208h27.777a1.206,1.206,0,0,0,1.208-1.208V113.208A1.206,1.206,0,0,0,140.985,112Zm-3.487,8.812h-2.412c-1.891,0-2.257.9-2.257,2.219v2.91h4.514l-.589,4.555h-3.925v11.7h-4.706V130.5h-3.936v-4.559h3.936v-3.359c0-3.9,2.381-6.023,5.861-6.023a31.853,31.853,0,0,1,3.517.181v4.072Z" transform="translate(950 387)"/></g></svg>