<svg xmlns="http://www.w3.org/2000/svg" xmlns:xlink="http://www.w3.org/1999/xlink" width="36" height="36" viewBox="0 0 36 36"><defs><style>.a{fill:#fff;stroke:#707070;}.b{clip-path:url(#a);}.c{fill:#333;}</style><clipPath id="a"><rect class="a" width="36" height="36" transform="translate(1175 496)"/></clipPath></defs><g class="b" transform="translate(-1175 -496)"><g transform="translate(1064.235 385.527)"><path class="c" d="M384.2,378.7a5.5,5.5,0,1,0,5.5,5.5A5.512,5.512,0,0,0,384.2,378.7Z" transform="translate(-255.341 -255.437)"/><path class="c" d="M145.354,128.763c0-2.278.021-4.534-.107-6.808a9.126,9.126,0,0,0-9.576-9.576c-2.278-.128-4.534-.107-6.808-.107s-4.534-.021-6.808.107a9.126,9.126,0,0,0-9.576,9.576c-.128,2.278-.107,4.534-.107,6.808s-.021,4.534.107,6.808a9.126,9.126,0,0,0,9.576,9.576c2.278.128,4.534.107,6.808.107s4.534.021,6.808-.107a9.126,9.126,0,0,0,9.576-9.576C145.379,133.3,145.354,131.04,145.354,128.763Zm-16.5,8.462a8.462,8.462,0,1,1,8.462-8.462A8.45,8.45,0,0,1,128.859,137.225Zm8.809-15.295a1.976,1.976,0,1,1,1.976-1.976A1.974,1.974,0,0,1,137.667,121.93Z" transform="translate(0 0)"/></g></g></svg>