<svg xmlns="http://www.w3.org/2000/svg" width="48" height="32" viewBox="0 0 48 32"><defs><style>.a{fill:#fff;}.b{fill:#40a648;}.c{fill:#0d67b0;}.d{fill:#be2034;}</style></defs><rect class="a" width="48" height="32" rx="4"/><g transform="translate(8 4)"><path class="b" d="M0,2.008H2.59a1,1,0,0,0,.81-1,1.07,1.07,0,0,0-.81-1,1.23,1.23,0,0,0-.28,0H0Z" transform="translate(24.1 12.562)"/><path class="b" d="M4.02,0a4,4,0,0,0-4,4V8.15H5.67a1.71,1.71,0,0,1,.4,0c1.27.06,2.22.72,2.22,1.86a1.88,1.88,0,0,1-1.83,1.83h0c1.3.09,2.29.81,2.29,1.94s-1.1,2-2.55,2H0V24H5.88a4,4,0,0,0,4-4V0Z" transform="translate(22.12)"/><path class="b" d="M3.12,1a.94.94,0,0,0-.81-1H0V1.93H2.09a.72.72,0,0,0,.22,0A.93.93,0,0,0,3.12.99Z" transform="translate(24.1 9.31)"/><path class="c" d="M4,0A4,4,0,0,0,0,4v9.87a7.91,7.91,0,0,0,3.45.9,1.92,1.92,0,0,0,2.14-2V8.13H9v4.64c0,1.8-1.12,3.27-4.92,3.27A17,17,0,0,1,0,15.54V24H5.87a4,4,0,0,0,4-4V0Z" transform="translate(0)"/><path class="d" d="M4,0A4,4,0,0,0,0,4V9.23c1-.86,2.77-1.41,5.6-1.27a17.27,17.27,0,0,1,3.14.48v1.69a7.59,7.59,0,0,0-3-.88c-2.15-.15-3.45.9-3.45,2.75s1.3,2.92,3.45,2.75a8.1,8.1,0,0,0,3-.88v1.69a16.9,16.9,0,0,1-3.14.48c-2.83.14-4.59-.41-5.6-1.27V24H5.91a4,4,0,0,0,4-4V0Z" transform="translate(11.09)"/></g></svg>