<svg xmlns="http://www.w3.org/2000/svg" width="38" height="24" viewBox="0 0 38 24"><defs><style>.a{fill:#ffb3c7;fill-rule:evenodd;}.b{fill:#0a0b09;}</style></defs><path class="a" d="M35,0H3A2.946,2.946,0,0,0,0,3V21a3.009,3.009,0,0,0,3,3H35a2.946,2.946,0,0,0,3-3V3A3.009,3.009,0,0,0,35,0Z"/><path class="a" d="M35,1a2.006,2.006,0,0,1,2,2V21a2.006,2.006,0,0,1-2,2H3a2.006,2.006,0,0,1-2-2V3A2.006,2.006,0,0,1,3,1H35"/><path class="b" d="M34.117,13.184a.893.893,0,1,0,.883.892.888.888,0,0,0-.883-.892Zm-2.9-.69a1.275,1.275,0,1,0-1.274,1.222,1.249,1.249,0,0,0,1.274-1.222Zm0-2.376h1.406v4.75H31.219v-.3A2.446,2.446,0,0,1,29.825,15a2.507,2.507,0,0,1,0-5.013,2.441,2.441,0,0,1,1.394.435v-.3Zm-11.253.619v-.619h-1.44v4.75h1.443V12.651c0-.749.8-1.15,1.359-1.15h.016V10.119A1.747,1.747,0,0,0,19.966,10.737ZM16.38,12.493a1.275,1.275,0,1,0-1.274,1.223A1.248,1.248,0,0,0,16.38,12.493Zm0-2.375h1.406v4.75H16.385v-.3A2.446,2.446,0,0,1,14.99,15a2.507,2.507,0,0,1,0-5.013,2.438,2.438,0,0,1,1.394.435v-.3Zm8.463-.128a1.7,1.7,0,0,0-1.448.663v-.535H22v4.75h1.417v-2.5A1,1,0,0,1,24.472,11.3c.618,0,.973.374.973,1.066v2.507H26.85V11.848A1.869,1.869,0,0,0,24.848,9.99ZM10.465,14.87h1.472V8H10.465v6.868ZM4,14.87H5.558V8H4ZM9.45,8a5.5,5.5,0,0,1-1.593,3.9l2.154,2.97H8.086L5.745,11.642l.6-.458A3.96,3.96,0,0,0,7.926,8Z"/></svg>