<svg xmlns="http://www.w3.org/2000/svg" width="38" height="24" viewBox="0 0 38 24"><defs><style>.a{opacity:0.07;}.b{fill:#fff;}.c{fill:#eb001b;}.d{fill:#f79e1b;}.e{fill:#ff5f00;}</style></defs><path class="a" d="M35,0H3A2.946,2.946,0,0,0,0,3V21a3.009,3.009,0,0,0,3,3H35a2.946,2.946,0,0,0,3-3V3A3.009,3.009,0,0,0,35,0Z"/><path class="b" d="M35,1a2.006,2.006,0,0,1,2,2V21a2.006,2.006,0,0,1-2,2H3a2.006,2.006,0,0,1-2-2V3A2.006,2.006,0,0,1,3,1H35"/><circle class="c" cx="7" cy="7" r="7" transform="translate(8 5)"/><circle class="d" cx="7" cy="7" r="7" transform="translate(16 5)"/><path class="e" d="M22,12a6.827,6.827,0,0,0-3-5.7A7.1,7.1,0,0,0,16,12a6.963,6.963,0,0,0,3,5.7A6.827,6.827,0,0,0,22,12Z"/></svg>