<svg xmlns="http://www.w3.org/2000/svg" width="38" height="24" viewBox="0 0 38 24"><defs><style>.a{opacity:0.07;}.b{fill:#fff;}.c{fill:#003087;}.d{fill:#3086c8;}.e{fill:#012169;}</style></defs><path class="a" d="M35,0H3A2.946,2.946,0,0,0,0,3V21a3.009,3.009,0,0,0,3,3H35a2.946,2.946,0,0,0,3-3V3A3.009,3.009,0,0,0,35,0Z"/><path class="b" d="M35,1a2.006,2.006,0,0,1,2,2V21a2.006,2.006,0,0,1-2,2H3a2.006,2.006,0,0,1-2-2V3A2.006,2.006,0,0,1,3,1H35"/><path class="c" d="M23.9,8.3A2.31,2.31,0,0,0,23.3,6a3.994,3.994,0,0,0-3.1-1H16.1a.634.634,0,0,0-.6.5L14,15.6c0,.2.1.4.3.4H17l.4-3.4,1.8-2.2,4.7-2.1Z"/><path class="d" d="M23.9,8.3l-.2.2c-.5,2.8-2.2,3.8-4.6,3.8H18a.634.634,0,0,0-.6.5l-.6,3.9-.2,1c0,.2.1.4.3.4H19a.458.458,0,0,0,.5-.4v-.1l.4-2.4v-.1c0-.2.3-.4.5-.4h.3c2.1,0,3.7-.8,4.1-3.2a2.734,2.734,0,0,0-.4-2.4A1.009,1.009,0,0,0,23.9,8.3Z"/><path class="e" d="M23.3,8.1A.367.367,0,0,0,23,8a.367.367,0,0,1-.3-.1,3.75,3.75,0,0,0-1.1-.1h-3c-.1,0-.2,0-.2.1-.2.1-.3.2-.3.4l-.7,4.4v.1a.56.56,0,0,1,.6-.5h1.3c2.5,0,4.1-1,4.6-3.8V8.3a.764.764,0,0,0-.5-.2h-.1Z"/></svg>