<svg xmlns="http://www.w3.org/2000/svg" xmlns:xlink="http://www.w3.org/1999/xlink" width="24" height="24" viewBox="0 0 24 24">
  <defs>
    <clipPath id="clip-path">
      <rect id="矩形_10075" data-name="矩形 10075" width="24" height="24" transform="translate(1700 70)" fill="none" opacity="0"/>
    </clipPath>
  </defs>
  <g id="person" transform="translate(-1700 -70)" clip-path="url(#clip-path)">
    <path id="路径_62246" data-name="路径 62246" d="M137.992,137.992a5,5,0,1,0-5-5A5,5,0,0,0,137.992,137.992Zm0-8.882A3.886,3.886,0,1,1,134.106,133,3.886,3.886,0,0,1,137.992,129.11Zm4.313,9.321a2.359,2.359,0,0,0-1.76.117,6.106,6.106,0,0,1-5.107,0,2.359,2.359,0,0,0-1.76-.105A8.327,8.327,0,0,0,128,146.319a1.665,1.665,0,0,0,1.665,1.665h16.654a1.665,1.665,0,0,0,1.665-1.665,8.327,8.327,0,0,0-5.679-7.888Zm4.014,8.443H129.665a.555.555,0,0,1-.555-.555,7.217,7.217,0,0,1,4.929-6.834,1.111,1.111,0,0,1,.383-.067,1.366,1.366,0,0,1,.555.122,7.156,7.156,0,0,0,6.04,0,1.255,1.255,0,0,1,.938-.056,7.217,7.217,0,0,1,4.918,6.834A.555.555,0,0,1,146.319,146.874Z" transform="translate(1574.5 -55.5)" fill="#333" stroke="#333" stroke-width="0.3"/>
  </g>
</svg>
