<svg xmlns="http://www.w3.org/2000/svg" xmlns:xlink="http://www.w3.org/1999/xlink" width="36" height="36" viewBox="0 0 36 36"><defs><style>.a{fill:#fff;stroke:#707070;}.b{clip-path:url(#a);}.c{fill:#333;}</style><clipPath id="a"><rect class="a" width="36" height="36" transform="translate(1232 496)"/></clipPath></defs><g class="b" transform="translate(-1232 -496)"><path class="c" d="M113.2,13.88a12.692,12.692,0,0,1-7.626-2.547V22.867a10.15,10.15,0,1,1-20.274,0A10.407,10.407,0,0,1,95.437,12.206a9.566,9.566,0,0,1,1.634.141v6.11a4.346,4.346,0,0,0-1.591-.3A4.764,4.764,0,1,0,100,22.913V0h5.655a7.785,7.785,0,0,0,7.583,7.973v5.9l-.039,0" transform="translate(1150.375 497)"/></g></svg>