<svg width="33" height="33" viewBox="0 0 33 33" fill="none" xmlns="http://www.w3.org/2000/svg">
<path d="M27.4102 6.40088H22.4102V5.40088C22.4102 4.60523 22.0941 3.84217 21.5315 3.27956C20.9689 2.71695 20.2058 2.40088 19.4102 2.40088H13.4102C12.6145 2.40088 11.8514 2.71695 11.2888 3.27956C10.7262 3.84217 10.4102 4.60523 10.4102 5.40088V6.40088H5.41016C5.14494 6.40088 4.89059 6.50624 4.70305 6.69377C4.51551 6.88131 4.41016 7.13566 4.41016 7.40088C4.41016 7.6661 4.51551 7.92045 4.70305 8.10799C4.89059 8.29552 5.14494 8.40088 5.41016 8.40088H6.41016V26.4009C6.41016 26.9313 6.62087 27.44 6.99594 27.8151C7.37102 28.1902 7.87972 28.4009 8.41016 28.4009H24.4102C24.9406 28.4009 25.4493 28.1902 25.8244 27.8151C26.1994 27.44 26.4102 26.9313 26.4102 26.4009V8.40088H27.4102C27.6754 8.40088 27.9297 8.29552 28.1173 8.10799C28.3048 7.92045 28.4102 7.6661 28.4102 7.40088C28.4102 7.13566 28.3048 6.88131 28.1173 6.69377C27.9297 6.50624 27.6754 6.40088 27.4102 6.40088ZM12.4102 5.40088C12.4102 5.13566 12.5155 4.88131 12.703 4.69377C12.8906 4.50624 13.1449 4.40088 13.4102 4.40088H19.4102C19.6754 4.40088 19.9297 4.50624 20.1173 4.69377C20.3048 4.88131 20.4102 5.13566 20.4102 5.40088V6.40088H12.4102V5.40088ZM24.4102 26.4009H8.41016V8.40088H24.4102V26.4009ZM14.4102 13.4009V21.4009C14.4102 21.6661 14.3048 21.9205 14.1173 22.108C13.9297 22.2955 13.6754 22.4009 13.4102 22.4009C13.1449 22.4009 12.8906 22.2955 12.703 22.108C12.5155 21.9205 12.4102 21.6661 12.4102 21.4009V13.4009C12.4102 13.1357 12.5155 12.8813 12.703 12.6938C12.8906 12.5062 13.1449 12.4009 13.4102 12.4009C13.6754 12.4009 13.9297 12.5062 14.1173 12.6938C14.3048 12.8813 14.4102 13.1357 14.4102 13.4009ZM20.4102 13.4009V21.4009C20.4102 21.6661 20.3048 21.9205 20.1173 22.108C19.9297 22.2955 19.6754 22.4009 19.4102 22.4009C19.1449 22.4009 18.8906 22.2955 18.703 22.108C18.5155 21.9205 18.4102 21.6661 18.4102 21.4009V13.4009C18.4102 13.1357 18.5155 12.8813 18.703 12.6938C18.8906 12.5062 19.1449 12.4009 19.4102 12.4009C19.6754 12.4009 19.9297 12.5062 20.1173 12.6938C20.3048 12.8813 20.4102 13.1357 20.4102 13.4009Z" fill="black"/>
</svg>
