<svg xmlns="http://www.w3.org/2000/svg" xmlns:xlink="http://www.w3.org/1999/xlink" width="36" height="36" viewBox="0 0 36 36"><defs><style>.a{fill:#fff;stroke:#707070;}.b{clip-path:url(#a);}.c{fill:#333;}</style><clipPath id="a"><rect class="a" width="36" height="36" transform="translate(1296 496)"/></clipPath></defs><g class="b" transform="translate(-1296 -496)"><path class="c" d="M98.443,201.851a4.409,4.409,0,0,0-3.109-3.113C92.589,198,81.588,198,81.588,198s-11,0-13.745.734a4.4,4.4,0,0,0-3.109,3.113,49.32,49.32,0,0,0,0,16.956,4.409,4.409,0,0,0,3.109,3.113c2.744.738,13.745.738,13.745.738s11,0,13.745-.738a4.4,4.4,0,0,0,3.109-3.113,49.3,49.3,0,0,0,0-16.952ZM78.094,215.588V205.067l9.108,5.222Z" transform="translate(1232 303.373)"/></g></svg>